<?xml version="1.0" encoding="UTF-8"?><svg xmlns="http://www.w3.org/2000/svg" width="282.9" height="46" viewBox="0 0 282.9 46"><defs><style>.d{fill:#fff;}.e{fill:#bfd546;}</style></defs><g id="a"/><g id="b"><g id="c"><g><path class="d" d="M17.1,7.4c-1.4-.9-2.9-1.2-6.6-1.2H0v3.3H3l-.2,21.3H0v3.3H10.7v-3.3h-3.4v-7.8h4.2c2.4,0,3.7-.3,5.4-1.3,2.3-1.4,3.9-4.3,3.9-7.4s-1.4-5.5-3.6-6.8m-6.7,12.3h-3.1V9.4h2.5c2.1,0,3.5,.2,4.6,1.2,.9,.8,1.6,2.1,1.6,3.8,0,3.1-1.6,5.3-5.6,5.3"/><path class="d" d="M32.4,12.8c-6.7,0-10.1,4.8-10.1,10.9s4.1,10.7,10.9,10.7c3.1,0,5.8-.8,7.3-1.4l.2-3.6c-1.8,.9-4.1,1.6-6.6,1.6-4.1,0-7-2.6-7.1-6.6h14.8v-.6c0-6.4-3.1-10.9-9.3-10.9m4.6,8.5h-10.1c.2-2.5,1.4-5.2,5.2-5.2s4.9,3.1,4.9,4.8v.4Z"/><path class="d" d="M51.6,26.2c0-3.1,0-6.3,0-9.6h5.9v-3.2h-5.9l.2-5-4.5,.3v4.7h-3.2v3.2h3.1c0,3.6-.1,8.9-.1,11.5,0,4.6,1.7,6.3,6.1,6.3s3.5-.5,4.6-1l.2-3.2c-1,.4-2.3,.8-3.5,.8-2.1,0-2.9-1-2.9-4.7"/><polygon class="d" points="82.8 9.4 83 13.5 86.7 13.5 86.5 6.2 67 6.2 67 9.4 70.2 9.4 70 30.7 67.3 30.7 67.3 33.9 78 33.9 78 30.7 74.5 30.7 74.6 21.5 83.3 21.5 83.3 18 74.6 18 74.7 9.4 82.8 9.4"/><path class="d" d="M98.2,12.8c-6.3,0-10.8,4.5-10.8,11.2s2.9,10.4,10.3,10.4,10.7-4.8,10.7-10.7-2.5-10.9-10.1-10.9m-.4,17.9c-4,0-5.7-3.3-5.7-6.8s1.6-7.4,6-7.4,5.5,2.1,5.5,6.7-1.8,7.4-5.8,7.4"/><path class="d" d="M121.8,12.8c-6.3,0-10.8,4.5-10.8,11.2s2.9,10.4,10.3,10.4,10.7-4.8,10.7-10.7-2.5-10.9-10.1-10.9m-.4,17.9c-4,0-5.7-3.3-5.7-6.8s1.6-7.4,6-7.4,5.5,2.1,5.5,6.7-1.8,7.4-5.8,7.4"/><path class="d" d="M154.2,3.4h-8.1v3.3h3.8v6.6c-1.3-.3-2.7-.5-4.2-.5-7,0-11.1,4.9-11.1,11.8s3.6,9.8,8.6,9.8,5.8-1.9,6.9-4.7h0c-.2,1.2-.4,2.7-.4,4.2h7v-3.2h-2.8l.2-27.3Zm-4.5,19.5c0,4.8-1.8,7.7-5.3,7.7s-5-2.9-5-6.7,2.3-7.6,6.4-7.6,3,.3,3.9,.9v5.8Z"/><path class="e" d="M223,16.8c-.8-.7-1.8-.9-2.7-.7-1.2,.3-2.6,1.3-3.6,2.1-.1,0-.2,.2-.3,.3,.5-1.2,.7-2.1,.7-2.7,0-.8-.5-1.6-.9-1.9-.8-.8-2-.5-2.1,.4-.2,1-1.4,3.8-2.9,7.1l-.2,.3c-1.1,1.6-3.5,5-6.2,7.3-2.1,1.8-3.9,2.6-5.7,2.3-1-.2-1.6-.8-2-2l1.7-1.8c.6-.6,1.1-1.2,1.7-1.7,.8-.9,1.6-1.7,2.3-2.4,3.2-3.2,4.8-4.3,5.3-4.6,.6-.3,.7-.7,.7-1,0-.3,0-.8-.7-1.2-.7-.6-2-.7-2.6-.4-.4,.2-1.3,.8-4.7,4.2l-4.1,4.2c0-.8,.2-1.7,.3-2.5,.3-1.9,.7-3.4,1-4.1,.3-.8,0-1.7-.9-2-.6-.3-1.4-.3-1.9,0-.4,.2-.6,.6-.8,1.2-.4,.8-.9,1.7-1.5,2.6-.2,.4-.5,.7-.7,1.1-.1,0-.2,.2-.3,.3-1.1,1.6-2.5,3.5-4.5,5.7-2.7,2.8-5.7,5.2-8.9,7.1-3.7,2.3-7.4,3.6-10.1,3.6s-1.7-.2-2.2-.5c-.4-.2-.6-.6-.7-1.1-.3-1.2,.3-3,1.5-4.9,.9-1.3,2.1-2.7,3.6-4,3.4-3.2,7.4-5.6,9.6-6.8h.1c2.9,0,5.4-1.4,6.3-2.3,.4-.4,.5-1,.3-1.5-.4-.9-1.7-1.5-3.1-1.5s-.3,0-.4,0c-1,.1-2.6,.7-4.6,1.7-1.5-.5-2.1-1-2.4-1.3-.3-.3-.4-.6-.3-1.1,0-1.3,1.3-3.6,4.6-6.4,2.7-2.3,5.4-3.8,6.9-3.8s1,.3,1.4,.7c.5,.7,1.8,.5,2.4-.3,.4-.6,.2-1.3-.2-1.7l-.3-.3c-.8-1-1.9-2.3-3.8-2.3s-5.9,2.4-8.5,4.7c-3.1,2.7-5.3,5.5-6.1,7.7-.8,2.4,.2,4.8,2.6,6.3-2.1,1.3-4.2,2.8-6.2,4.4-1.6,1.3-3.1,2.7-4.3,4.2-2.1,2.7-3.1,5.4-2.8,7.6,.3,2.1,1.4,3.9,2.9,4.9,1.2,.8,2.7,1.3,4.5,1.3s2-.1,3.1-.4c5.7-1.4,10.5-4.7,13.6-7.3,3.4-2.8,5.8-5.7,7.2-7.9,.1-.1,.3-.2,.4-.4,0,0,0-.1,.1-.2v.6c-.1,.8-.1,1.6,0,2.4-1,1.1-2.1,2.4-3.1,3.7l-2.2,2.8c-.8,.9-.6,2.1-.1,2.8,.3,.5,.8,.8,1.3,.8s.7,0,1.1-.7c.2-.3,.8-1.2,2.6-3.3l1.9-2.2c.3,.4,.6,.8,1,1.2,1.5,1.5,3.7,2,6.1,1.5,1.5-.4,3.1-1.3,4.6-2.5-2.7,6.2-4.3,10-4.4,11.1,0,1.1,.4,2.1,.9,2.6,.3,.3,.7,.4,1,.4s1-.1,1.3-1.3c.2-1,1.1-3.4,2.5-6.7l.4-.9c.7-1.5,1.4-3.3,2.2-4.9,1,1.5,2.6,2.2,4.4,1.7,2.6-.6,5.8-4.4,7.4-7.7,1.5-3,2.1-4.9,2.1-6.2,0-.9-.5-2.3-1.5-3.2m-1.8,2.6c-.1,1.1-1.3,4-3.5,7.2-1.7,2.4-3.1,3.8-4.4,4.1-.5,0-.9-1.2-1-1.9,1.4-2.3,3.5-4.9,5.9-7.1,1.5-1.4,2.6-2.1,3.1-2.3"/><path class="e" d="M272,15.7c-.3-.5-.9-.9-1.5-1.2-.2,0-.6-.2-1.8-.2s-2.4,0-4,.2l-2.6,.2,2.5-4.7c.2-.3,.2-.7,0-1.1-.2-.5-.6-.8-1.2-1-.9-.3-2,0-2.5,.7-.2,.4-.9,1.4-1.7,2.9-.6,1-1.2,2.3-1.9,3.7l-5,.5c-.4,0-.8,.3-1.1,.8-.2,.5,0,1,.3,1.6,.4,.5,.9,.9,1.5,1,.4,0,.9,0,1.1-.1,.1,0,.6-.2,1.5-.3-.4,1-.9,2-1.3,3.1,0,0,0,.1,0,.2-.8,1.1-2.2,3.1-3.7,5-2.8,3.5-4.2,4.4-4.7,4.6,0-.5,.4-1.8,1.8-5.1,.7-1.8,1.6-3.5,2.1-4.5,.2-.3,.3-.6,.3-.7,.7-1.5,.1-3-.9-3.5-.7-.4-1.4-.4-1.9-.5,0,0-.1,0-.2,0,.1-.2,.3-.6,.5-1.1,.1-.4,.2-1.3-.9-2.2-.9-.7-2-.5-2.2,.3-.2,.7-3.5,6-6.3,9.8-5.3,7.4-9.2,9.5-10.6,8.9-.5-.2-1.2-1.5-.7-3.5,1.1-.6,3.2-1.7,5.3-3.3,1.5-1.1,4.1-3.3,4.5-5.5,.2-1.1,0-2.1-.7-2.8-.9-1.1-2.4-1.5-4.1-1.1-2.6,.7-5.7,3.9-7.4,7.9-1.1,2.7-1.5,5.2-.9,7.3,.7,2.5,2.5,4,5,4.2,.1,0,.3,0,.4,0,3.2,0,6.8-2.9,11.2-8.7,.9-1.3,2-2.8,2.9-4.1,1.1-1.5,2.1-2.9,2.4-3.3,0,0,0,0,.2,0,.3,0,.5,.1,.6,.1,0,.3-.5,1.3-1,2.2-.9,1.9-2.2,4.5-2.8,7-.3,1.5,0,3.1,.9,4.2,.8,1,2,1.5,3.4,1.2,1.7-.3,4-2.7,5.5-4.5,0,.7,0,1.3,.1,1.9,.3,2.1,1.3,3.8,2.8,4.9,1,.7,2.2,1.1,3.5,1.1s1.8-.2,2.6-.5c1.2-.5,1.5-1.6,1.2-2.4-.3-.9-1.4-1.4-2.1-.7-.2,.3-1.5,.9-2.6,.9s-.8-.1-1.1-.3c-.7-.6-1.2-2.2-.9-5.1,.3-2.3,1.1-5.1,2.3-8,.5-1.2,1.1-2.5,1.8-3.8,1.4-.2,2.9-.3,4.4-.4h.9c1.7-.2,4-.3,4.9-.2,1,.1,1.4-.3,1.6-.6,.2-.4,.2-.8,0-1.1m-43.7,9.5c.4-.6,1.4-2.4,1.8-3,1.3-1.5,2.8-2.2,3.4-2.5-.4,.6-.6,1.5-2.4,3.1-.4,.4-2.4,2-2.9,2.4"/><polygon class="e" points="274.6 4.4 272.9 4.4 272.9 3.9 276.9 3.9 276.9 4.4 275.2 4.4 275.2 9 274.6 9 274.6 4.4"/><polygon class="e" points="278 3.9 278.6 3.9 280.5 6.7 282.3 3.9 282.9 3.9 282.9 9 282.3 9 282.3 4.9 280.5 7.6 280.4 7.6 278.6 4.9 278.6 9 278 9 278 3.9"/></g></g></g></svg>