<svg height="131.25" viewBox="0 0 700 131.25" width="700" xmlns="http://www.w3.org/2000/svg"><path d="m676.59 32.55h.87v-6.35h2.54v-.82h-5.88v.82h2.5zm7.41-5.76 2.57 3.53h.13l2.55-3.56v5.79h.86v-7.17h-.83l-2.58 3.67-2.7-3.67h-.87v7.17h.87zm-566.5 92.29c-.32-4-.85-8-.89-12-.2-22.06-.36-44.11-.36-66.16 0-7.51.48-15 .75-22.51a6.48 6.48 0 0 1 3.91-6.15c.72-.34 1.45-.7 2.2-1l4.45-1.82a12.21 12.21 0 0 0 .09-1.53c0-.53-.17-1.06-.28-1.75-14.3.67-28.48.77-42.75.1-6.47 19.69-13.24 39.18-20.7 58.41h-.58c-7.36-19.51-14.73-39-22-58.24h-41.34v2.99c1.88.79 3.58 1.52 5.29 2.19a7.76 7.76 0 0 1 5.24 7.39c.34 6 .92 12.09.91 18.15 0 26.47.54 53-.33 79.45-.16 4.41-1.6 7.43-6 8.74a47.81 47.81 0 0 0 -4.75 1.96c.16 1.11.29 2 .43 3.09 4.85-.14 9.5-.38 14.17-.38s9.44.23 14.2.35v-3.13c-2.43-1.09-4.76-2.17-7.12-3.18a4.75 4.75 0 0 1 -2.92-4.13c-.22-2-.46-4-.5-6-.16-6.15-.31-12.29-.31-18.42q-.14-35-.13-70.05c0-.61.07-1.23.1-1.84a6.28 6.28 0 0 1 1.44 2.22c2.48 6.38 5 12.75 7.4 19.14q11.14 29.03 22.25 58.15c.79 2.1 1.57 4.23 2.47 6.3.26.56 1 1.34 1.43 1.3s1.11-.81 1.44-1.38a9.84 9.84 0 0 0 .74-2c4-11.15 7.83-22.32 11.85-33.43q9.49-26.1 19.13-52.13c.23-.61.52-1.21.77-1.81a16.26 16.26 0 0 1 .88 5.03c.13 8.81.29 17.63.28 26.43q-.06 31.4-.25 62.76c0 1.94-.37 3.86-.38 5.79a4.63 4.63 0 0 1 -3.28 4.58c-2.16.87-4.27 1.77-6.45 2.67 0 .54-.1 1-.09 1.5s.16 1.07.22 1.49h49.38c.16-.88.32-1.81.5-2.93-2.44-1.05-4.66-2-6.86-3a5.86 5.86 0 0 1 -3.68-5.21zm25.65 11.17h42.45v-6.16h-42.48zm162.58-11.15c-1.11-2.42-2-4.91-2.9-7.4q-13.11-37.6-26.12-75.24c-2.08-6.06-3.8-12.28-5.51-18.48-1.22-4.36.42-6.81 4.77-7.76.84-.19 1.68-.43 2.67-.66-.05-1-.12-1.95-.14-2.72h-46.59v2.82c1.49.47 2.9.78 4.25 1.3 3.12 1.21 4.07 2.76 3.91 6.11a12.7 12.7 0 0 1 -.3 2.39c-1.63 6.48-3.15 13-5 19.4q-5.77 20.69-11.77 41.28c-3.59 12.28-7.44 24.47-11 36.75-1.64 5.68-5.48 8.67-11 9.94-1 .23-2 .49-3.11.75.1 1 .18 1.83.23 2.64h29.12c.09-.9.17-1.81.27-2.71-1.92-.42-3.58-.72-5.18-1.16-3.31-1-4.57-2.74-3.91-6.14.7-3.71 1.76-7.35 2.73-11 .61-2.24 1.29-4.45 2-6.71h43.85c.72 1.89 1.46 3.59 2 5.37a71.18 71.18 0 0 1 2.34 8.34c.66 3.67-.43 6.89-3.71 9-1.47 1-3.08 1.67-4.8 2.58.06.77.11 1.64.15 2.43h54.34v-2.46a9.45 9.45 0 0 0 -1-.41 13.85 13.85 0 0 1 -10.59-8.25zm-79.93-24.4c.1-2.45 16.22-58.38 17.43-60.21 7 20.13 14 40.06 21 60.21zm-26.93-2.81c.1-.73 0-1.54-1-1.74a2.22 2.22 0 0 0 -2.55.82c-.47.84-.89 1.69-1.35 2.51-2.2 4-4.85 7.65-9 10.32a22.73 22.73 0 0 1 -15.97 3.2 12.87 12.87 0 0 1 -11-9.75 56.38 56.38 0 0 1 -1.88-11.15 156.85 156.85 0 0 1 0-24 82.71 82.71 0 0 1 1.8-11.79c1.12-5 4.75-8 10.48-9a26.76 26.76 0 0 1 14.6 1.69 24.55 24.55 0 0 1 3.35 1.91c-1.9 2.15-3.8 4-5.29 6a11.78 11.78 0 0 0 -2.06 10.84 8.57 8.57 0 0 0 7.24 6.17c3.78.63 7.4.24 10.2-2.53 3.39-3.39 3.56-7.39 2.56-11.39-1.79-7.05-7.18-11.49-14.45-14.35-7.57-3-15.48-3.3-23.6-2.08-9.57 1.44-17.35 5.34-23.1 12.17-6.32 7.49-8.76 16.07-8.78 25.19a38.49 38.49 0 0 0 3.82 17c4.57 9.6 12.4 16 24 18.73a59.64 59.64 0 0 0 10.73 1.34 33.13 33.13 0 0 0 13.77-1.92 29.47 29.47 0 0 0 17-16 6.68 6.68 0 0 0 .48-2.19zm194.31 25.11c-.24-6.59-.52-13.17-.6-19.76-.18-15.57-.35-31.14-.31-46.72 0-16 .32-32 .49-48 0-.81 0-1.61 0-2.47h-3.27c-.2.53-.43 1-.59 1.54a17.22 17.22 0 0 1 -3.5 6c-3.49 4.09-7.94 6.82-12.76 9-1.4.63-2.82 1.17-4.24 1.76 0 1.71-.05 3.31 0 4.94s.17 3.19.22 4.8.05 3.21.06 4.82v4.66 4.82 4.82a22.75 22.75 0 0 1 -.2 4.83c-.5-.4-.86-.67-1.18-1a22.49 22.49 0 0 0 -6.54-3.86c-5.9-2.35-12-2.41-18.1-1.19a32.18 32.18 0 0 0 -19.87 12.29c-4.81 6.24-7.28 13.42-8.32 21.17-.25 1.86-.48 3.72-.73 5.57v5.33c.12.63.28 1.3.34 1.94.07.94 0 1.89.12 2.82a54.31 54.31 0 0 0 3.28 14 32.07 32.07 0 0 0 10 13.83 35.06 35.06 0 0 0 27.93 7.18 23.73 23.73 0 0 0 16.83-10.42c.82-1.25 1.46-2.58 2.32-4.19.4.52.65 1 1 1.32a60.56 60.56 0 0 0 14.08 11.26 5.25 5.25 0 0 0 4.1.59c0-.51 0-1 0-1.38-.2-3.47-.45-6.89-.56-10.3zm-24.53-28c0 5.28.08 10.53 0 15.8a40.85 40.85 0 0 1 -.68 8.07c-2 8.72-9.84 13.67-18.41 11.73a8.69 8.69 0 0 1 -4.75-3.16 20.61 20.61 0 0 1 -4.19-8.93 64.48 64.48 0 0 1 -1.69-13.29c-.12-6.14-.3-12.28-.28-18.44a98.12 98.12 0 0 1 1.3-17 26 26 0 0 1 2.23-7.25 10.66 10.66 0 0 1 9.2-6.11 15.53 15.53 0 0 1 11.26 3c2.68 2 4.61 4.53 5 7.9.48 4 .86 7.93 1 11.89.16 5.27 0 10.53 0 15.79zm110.35 22.23c-.17-3.81-.08-7.64-.08-11.46 0-7.74.09-15.5-.61-23.23a67.4 67.4 0 0 0 -1.79-11 23.87 23.87 0 0 0 -5.3-10.37 29.33 29.33 0 0 0 -13.34-8 52 52 0 0 0 -15.88-2.03 46.9 46.9 0 0 0 -10.82 1.38 40.17 40.17 0 0 0 -10 4c-5.48 3.09-9.59 7.32-10.77 13.76a11.66 11.66 0 0 0 .56 7.14c2.57 5.74 11.73 6.69 15.47 1.16a15.79 15.79 0 0 0 -.14-16.64l-1.3-1.94c1-.58 1.8-1.13 2.67-1.56a27.23 27.23 0 0 1 15.33-2.35 11.05 11.05 0 0 1 9.23 6.7 19.61 19.61 0 0 1 1.51 4.55 89.47 89.47 0 0 1 1.11 9.36c.22 4 .17 8.08.22 12.11a1.36 1.36 0 0 1 -.18.51 2.73 2.73 0 0 1 -.64.07c-2.35-.22-4.72-.48-7.09-.68a77.27 77.27 0 0 0 -14.9 0 37.16 37.16 0 0 0 -16.26 5.65 22.15 22.15 0 0 0 -9.3 11.51 22.46 22.46 0 0 0 -.8 10.49c.92 6.26 3.67 11.41 9 15.06 5 3.45 10.71 4.83 16.66 5.42.76.08 1.48.27 2.26.41h5.31c1.5-.25 3-.47 4.53-.75a23.77 23.77 0 0 0 15.31-9.4c.68-.89 1.27-1.86 1.92-2.86.32.28.54.43.74.62a48.41 48.41 0 0 0 14.23 9.88 7.15 7.15 0 0 0 4.33.36c-.12-1.49-.21-2.79-.31-4.12-.33-4.58-.72-9.16-.88-13.75zm-24.59 2.77a16.62 16.62 0 0 1 -6.4 9.77 11.06 11.06 0 0 1 -16.68-5.33 25.48 25.48 0 0 1 -1.63-8.26 71.74 71.74 0 0 1 0-7.62c.37-4.25 1.54-8.23 4.84-11.28a11.54 11.54 0 0 1 6.52-3 50.82 50.82 0 0 1 11.43.24c.76.07 1.53.11 2.52.18 0 .7.06 1.24.09 1.78q.11 5.73.19 11.47c.12 4.05.16 8.1-.88 12.05zm169.59 3.27c0-2.76 0-5.52.08-8.3.19-10.3.41-20.61.57-30.9a40.55 40.55 0 0 0 -2-13.39c-1.66-5-4.14-9.54-8.25-13a28.44 28.44 0 0 0 -12.57-5.68c-2-.42-4-.73-6-1.08h-4.66c-1.71.35-3.45.64-5.18 1a33.28 33.28 0 0 0 -16.86 9.86l-1.22 1.28c-.42-.46-.72-.81-1-1.18a28.59 28.59 0 0 0 -16.42-10.15c-1.59-.39-3.23-.56-4.85-.85h-3.32a3.84 3.84 0 0 1 -.91.35c-8.14.57-14.12 4.72-18.86 11.09l-.55.68a.43.43 0 0 1 -.15.09c-.67-.94-2.4-8.26-2.87-12.18h-.33a3.62 3.62 0 0 1 -.88.66 125 125 0 0 1 -17.51 6.07c-3.07.82-6.18 1.49-9.52 2.29.15 1.06.29 2.11.44 3.22a19.92 19.92 0 0 1 2.24.33c1.44.4 2.87.82 4.27 1.32a3.33 3.33 0 0 1 2 2.13 11.3 11.3 0 0 1 .76 3c.31 4.32.61 8.62.67 12.93.1 7.27.08 14.51 0 21.77-.06 6.37-.21 12.75-.3 19.12a4.21 4.21 0 0 1 -2.12 3.85c-.9.53-1.81 1.06-2.72 1.57-1.68.94-3.4 1.87-5 2.75v2.19h43.82v-2.11c-2.41-1.31-4.72-2.62-7-3.88a5.1 5.1 0 0 1 -2.88-5c.21-15.51-.37-31 .35-46.53a28.87 28.87 0 0 1 2-10 18.29 18.29 0 0 1 5.86-8.09c4.15-3.08 9.52-2.7 12.71 1.08a15.23 15.23 0 0 1 2.45 4.48 40.93 40.93 0 0 1 2 11.21c.34 5 .58 10.06.6 15.1 0 10.69-.15 21.37-.27 32.06 0 .78-.17 1.56-.2 2.34a3.16 3.16 0 0 1 -1.57 2.59c-1.35.84-2.74 1.65-4.13 2.43s-2.71 1.44-4.1 2.19c0 .8.08 1.5.12 2.17h43.67v-2.25l-1.71-.93c-2-1.1-3.95-2.2-5.93-3.32a3.72 3.72 0 0 1 -1.9-2.59 14.77 14.77 0 0 1 -.31-3c0-12.51-.09-25-.06-37.55a93.1 93.1 0 0 1 1-13.56 18.84 18.84 0 0 1 6.06-11.68c4.68-4.12 12.24-4.18 15.6 2.78a28.8 28.8 0 0 1 2 6.26 74.31 74.31 0 0 1 1.32 14.87c0 13.18-.19 26.36-.31 39.55 0 .65-.15 1.31-.19 2a3.31 3.31 0 0 1 -1.69 2.7c-1.4.86-2.86 1.67-4.31 2.46-1.24.71-2.51 1.36-3.68 2v2.25h43.64v-2.22c-2.46-1.33-4.84-2.64-7.22-3.9a4.83 4.83 0 0 1 -2.72-4.75zm68.7-30.44a66.82 66.82 0 0 0 -12.9-9.26c-4.24-2.51-8.46-5-12.58-7.71a28.07 28.07 0 0 1 -7.45-6.8c-1.79-2.4-2.65-5-1.26-7.88a8.22 8.22 0 0 1 4.7-4 20.66 20.66 0 0 1 9-1.06 18 18 0 0 1 11.69 5.24 29.53 29.53 0 0 1 6.33 10.22c.67 1.69 1.24 3.43 1.92 5.27l2.19-.53a4.54 4.54 0 0 0 .08-.8c-.08-.7-.21-1.4-.27-2.12-.7-5.8-1.77-11.57-2.91-17.28a2.38 2.38 0 0 0 -1.8-2.07 58.54 58.54 0 0 0 -11-2.42c-1.85-.21-3.72-.46-5.58-.71h-6a6.11 6.11 0 0 1 -1.06.38c-1.36.26-2.74.38-4.06.72-11.61 3-18.58 11.73-18.37 23.6.15 8.14 4.08 14.54 9.94 19.89 3.89 3.52 8.39 6.12 12.89 8.72s8.9 5.36 13.26 8.17a18.62 18.62 0 0 1 5.28 5 6.67 6.67 0 0 1 .67 6.75 9.18 9.18 0 0 1 -4.25 4.47c-3.5 1.95-7.36 2.38-11.24 2.38a21 21 0 0 1 -13.76-5.38 36.58 36.58 0 0 1 -10.95-17.28c-.39-1.26-.73-2.51-1.12-3.89l-2.36.45c.12 3 .17 5.92.36 8.79.35 5.48.82 10.92 1.24 16.38.12 1.73.12 1.74 1.82 2.25a89.37 89.37 0 0 0 24.16 3.68 36.11 36.11 0 0 0 12.39-1.72 25.76 25.76 0 0 0 18.13-22.28c.88-7.67-1.73-13.93-7.13-19.17z" fill="#4c4c4c" fill-rule="evenodd"/></svg>